<svg width="66" height="58" viewBox="0 0 66 58" fill="none" xmlns="http://www.w3.org/2000/svg">
<g id="Group">
<g id="Group_2">
<path id="Vector" d="M38.499 53.036V52.8525H35.8658V53.036C35.8658 53.036 36.3951 53.0417 36.5782 53.3389V55.1333H34.5243V53.3389C34.5243 53.3389 34.622 53.0723 35.2422 53.0393V52.8547H32.6104V53.0393C32.6104 53.0393 33.1383 53.0438 33.3206 53.3422V57.5123C33.1382 57.8107 32.6104 57.8153 32.6104 57.8153V57.9986H35.2422V57.8153C34.622 57.7835 34.5243 57.5144 34.5243 57.5144V55.466H36.5782V57.5088C36.3951 57.8097 35.8658 57.8118 35.8658 57.8118V57.9964H38.499V57.8118C37.8775 57.781 37.7809 57.5122 37.7809 57.5122V53.3366C37.7809 53.3366 37.8775 53.0701 38.499 53.036ZM33.6994 57.51H33.5105V53.3652H33.6994V57.51ZM36.9629 57.5089H36.7752V53.3641H36.9629V57.5089Z" fill="#0099B8"/>
<path id="Vector_2" d="M49.3342 57.8331C49.2818 57.8194 49.2263 57.7931 49.1698 57.7591C48.7951 57.53 48.3551 56.924 48.3551 56.924C47.6169 55.7471 47.2058 55.5386 47.2058 55.5386C47.2058 55.5386 48.177 55.2653 48.3818 54.528C48.5184 54.176 48.364 53.7009 48.364 53.7009C47.9993 52.81 46.9258 52.8534 46.9258 52.8534H43.6392V53.0391C43.6392 53.0391 44.128 53.0415 44.2961 53.342V57.5121C44.128 57.8105 43.6392 57.8151 43.6392 57.8151V57.9984H46.3089V57.8151C45.7378 57.7833 45.5733 57.5142 45.5733 57.5142V55.7562C45.622 55.7471 46.1301 55.6651 46.7848 56.7371C46.7848 56.7371 47.565 57.9209 47.7371 57.9846L48.9252 57.9925L49.4998 57.997L49.3342 57.8331ZM47.6424 54.1771C47.6481 54.772 47.0944 55.0817 47.0602 55.1002C47.109 55.0501 47.9804 54.1579 47.0678 53.2682C47.1023 53.2839 47.6492 53.5539 47.6424 54.1771ZM44.7518 57.5096H44.5783V53.3637H44.7518V57.5096ZM45.5729 55.3848V53.3385C45.5729 53.3385 45.5618 53.2998 45.5786 53.2506L45.5843 53.2519C45.5843 53.2519 47.1048 52.9112 47.2392 54.0345C47.2392 54.0345 47.2615 54.2851 47.1747 54.5449C46.8135 55.4611 45.6353 55.3905 45.5729 55.3848ZM47.5571 57.4697C47.3325 57.1997 46.9146 56.5344 46.9146 56.5344C46.7036 56.1504 46.2267 55.7551 46.2267 55.7551L46.4258 55.7435C46.4258 55.7435 46.8804 56.1059 47.0692 56.4555C47.0692 56.4555 47.6083 57.3022 47.7607 57.4695L47.5571 57.4697Z" fill="#0099B8"/>
<path id="Vector_3" d="M43.1942 56.5077C43.0142 57.2824 42.8464 57.4452 42.8464 57.4452C42.0071 57.7735 41.0435 57.6013 41.0435 57.6013C40.7567 57.5844 40.7043 57.2893 40.6943 57.2013V55.4515H41.7713C41.9259 55.4823 42.0791 56.2081 42.0969 56.3209H42.3117V54.2371H42.1015C42.0805 54.3691 41.9315 55.0709 41.778 55.1348H40.6943V53.2937C40.86 53.2561 41.9113 53.0431 42.6273 53.3531C42.6273 53.3531 42.8173 53.4898 42.9997 54.2669H43.201L43.211 52.8633L38.7764 52.853V53.0365C38.7764 53.0365 39.1954 53.0422 39.341 53.3394V57.5128C39.1953 57.8112 38.7764 57.8157 38.7764 57.8157V57.9991H43.3491L43.4001 56.4986L43.1942 56.5077ZM39.8487 57.4841H39.6998V53.337H39.8487V57.4841Z" fill="#0099B8"/>
<path id="Vector_4" d="M54.2299 57.3893L52.3058 52.8525H50.4762V53.0622C50.4762 53.0622 51.0486 53.068 51.1898 53.3586L49.6715 57.4043C49.5792 57.6265 49.3504 57.72 49.1702 57.7598C49.0336 57.7894 48.9258 57.7883 48.9258 57.7883V57.999H50.8164V57.7883C50.2297 57.7791 50.1128 57.4715 50.1128 57.4715L50.5108 56.4017H52.5114L52.9592 57.4909C52.8616 57.7485 52.2525 57.7883 52.2525 57.7883L52.2548 57.999H54.9801V57.7883C54.4 57.7937 54.2299 57.3893 54.2299 57.3893ZM50.6344 56.0643L51.4602 53.8346L52.3749 56.0643H50.6344ZM53.1573 57.4735L51.519 53.3559H51.6803L53.3618 57.4735H53.1573Z" fill="#0099B8"/>
<path id="Vector_5" d="M59.4652 56.34C59.3206 57.1169 59.1108 57.4392 59.1108 57.4392C58.3216 57.724 57.3392 57.5932 57.3392 57.5932C57.098 57.5795 57.0456 57.2867 57.0392 57.2001V53.3504C57.1258 53.258 57.1571 53.0895 57.7439 53.0474V52.8525H55.1162V53.0553C55.1162 53.0553 55.6941 53.0941 55.8098 53.3947L55.8009 57.4712C55.6852 57.7708 55.1162 57.7845 55.1162 57.7845V57.9987H59.6109L59.6508 56.3262L59.4652 56.34ZM56.2119 57.5065H56.0539V53.3811H56.2119V57.5065Z" fill="#0099B8"/>
<path id="Vector_6" d="M65.2495 54.3058C64.6015 52.802 62.8976 52.8508 62.8976 52.8508H59.8311V53.0423C59.8311 53.0423 60.4435 53.0708 60.5378 53.3783V57.4719C60.4431 57.7774 59.8311 57.8059 59.8311 57.8059V57.9973H62.582C63.8201 57.9722 64.8492 57.3854 65.275 56.4535C65.7206 55.3655 65.2495 54.3058 65.2495 54.3058ZM60.9236 57.488H60.7335V53.3569H60.9236V57.488ZM62.2618 57.6623C61.7484 57.6213 61.7406 57.2875 61.7406 57.2875L61.7383 53.2429C61.7383 53.2429 62.0496 53.1541 62.6997 53.1734C62.6997 53.1734 63.2843 53.1506 63.6677 53.6417C63.6677 53.6417 64.0346 54.1143 64.0601 54.8869L64.0758 55.3666C64.0758 55.3666 64.1002 56.2996 63.8091 56.809C63.3755 57.7567 62.2618 57.6623 62.2618 57.6623ZM63.5375 57.4253C63.582 57.3991 64.2991 56.9535 64.3233 55.4007C64.3279 55.3858 64.3379 55.1467 64.3177 54.9495C64.2912 54.6886 64.2332 54.4505 64.2332 54.4505C64.0419 53.5651 63.572 53.3146 63.5131 53.2861C64.1522 53.4467 64.4856 54.2898 64.5223 55.1751C64.5624 56.163 64.2314 57.2077 63.5375 57.4253Z" fill="#0099B8"/>
<path id="Vector_7" d="M5.23374 54.3122C4.60797 52.8583 2.96075 52.904 2.96075 52.904H-0.000244141V53.0909C-0.000244141 53.0909 0.589954 53.1183 0.681096 53.4167V57.3792C0.589954 57.6755 -0.000244141 57.7027 -0.000244141 57.7027V57.8897H2.65621C3.85328 57.8645 4.84917 57.2973 5.2593 56.3925C5.68723 55.3399 5.23374 54.3122 5.23374 54.3122ZM1.05344 57.3962H0.870048V53.3971H1.05344V57.3962ZM2.3461 57.5637C1.85038 57.5249 1.84482 57.2013 1.84482 57.2013L1.84149 53.2843C1.84149 53.2843 2.14159 53.1988 2.77069 53.2171C2.77069 53.2171 3.33643 53.1965 3.70434 53.6695C3.70434 53.6695 4.06112 54.1285 4.08558 54.8773L4.10003 55.3421C4.10003 55.3421 4.12225 56.2444 3.84216 56.7365C3.42313 57.656 2.3461 57.5637 2.3461 57.5637ZM3.57874 57.3337C3.62209 57.3085 4.31565 56.878 4.33899 55.3729C4.34344 55.3593 4.35233 55.1281 4.33344 54.9365C4.30898 54.6836 4.2523 54.4547 4.2523 54.4547C4.05557 53.5398 3.55206 53.3245 3.55206 53.3245C4.17227 53.4783 4.49683 54.2962 4.53017 55.1565C4.56907 56.1123 4.25008 57.1228 3.57874 57.3337Z" fill="#0099B8"/>
<path id="Vector_8" d="M9.88347 56.4453C9.70785 57.195 9.54446 57.3522 9.54446 57.3522C8.73197 57.6701 7.79832 57.5037 7.79832 57.5037C7.52156 57.4878 7.47154 57.2007 7.46265 57.1165V55.4236H8.50523C8.65528 55.4521 8.80199 56.155 8.81978 56.2644H9.02762V54.2467H8.82422C8.8031 54.3754 8.65972 55.0533 8.50967 55.1148H7.46265V53.3341C7.62048 53.2976 8.63971 53.0901 9.33439 53.3887C9.33439 53.3887 9.51779 53.5232 9.69229 54.2751H9.8868L9.89792 52.9157L5.60425 52.9067V53.0833C5.60425 53.0833 6.00883 53.089 6.14888 53.3784V57.4184C6.00883 57.7078 5.60425 57.7124 5.60425 57.7124V57.8902H10.0324L10.0813 56.4376L9.88347 56.4453ZM6.64238 57.392H6.49788V53.3747H6.64238V57.392Z" fill="#0099B8"/>
<path id="Vector_9" d="M24.7005 57.3181L22.8332 52.9272H21.0548V53.129C21.0548 53.129 21.6094 53.1347 21.7461 53.4184L20.2723 57.3319C20.1156 57.7102 19.5476 57.7046 19.5476 57.7046V57.9118H21.3838V57.7046C20.8147 57.6967 20.7002 57.3992 20.7002 57.3992L21.087 56.3635H23.0321L23.4645 57.4185C23.3722 57.667 22.7798 57.7046 22.7798 57.7046L22.7809 57.9118H25.4296V57.7046C24.8672 57.7088 24.7005 57.3181 24.7005 57.3181ZM21.2071 56.0387L22.0118 53.8772L22.8987 56.0387H21.2071ZM23.659 57.4013L22.0673 53.4125H22.2241L23.8568 57.4013H23.659Z" fill="#0099B8"/>
<path id="Vector_10" d="M14.8899 56.9166C13.6661 57.9717 12.4779 57.2869 12.4779 57.2869C10.8507 56.3458 11.3731 52.8448 13.6161 53.2209C13.6161 53.2209 14.2485 53.2733 14.3241 53.6093L14.5442 54.2953H14.7342V53.1399C14.7342 53.1399 13.8073 52.6718 12.319 52.9315C11.1208 53.1672 10.6062 54.3135 10.6062 54.3135C10.6062 54.3135 10.4006 54.6621 10.3472 55.3548C10.3472 55.3548 10.1838 56.9977 11.6932 57.7293C11.6932 57.7293 12.5446 58.1861 13.8317 57.9137C13.8317 57.9137 14.4708 57.7954 15.0577 57.1424L14.8899 56.9166ZM10.6851 56.3628C10.4395 55.5517 10.6162 54.8636 10.6162 54.8636C10.9041 53.6775 11.7666 53.3334 11.821 53.313C10.8963 53.9487 10.7696 54.9001 10.7696 54.9001C10.7696 54.9001 10.7151 55.111 10.7151 55.644C10.7151 55.644 10.6884 56.9303 11.8377 57.566C10.9885 57.2424 10.6851 56.3628 10.6851 56.3628Z" fill="#0099B8"/>
<path id="Vector_11" d="M19.5525 56.9166C18.3287 57.9717 17.1405 57.2869 17.1405 57.2869C15.5122 56.3458 16.0346 52.8448 18.2787 53.2209C18.2787 53.2209 18.9111 53.2733 18.9856 53.6093L19.2079 54.2953H19.3946V53.1399C19.3946 53.1399 18.471 52.6718 16.9816 52.9315C15.7834 53.1672 15.2688 54.3135 15.2688 54.3135C15.2688 54.3135 15.0632 54.6621 15.0076 55.3548C15.0076 55.3548 14.8442 56.9977 16.3558 57.7293C16.3558 57.7293 17.2061 58.1861 18.4954 57.9137C18.4954 57.9137 19.1334 57.7954 19.7192 57.1424L19.5525 56.9166ZM15.3477 56.3628C15.1021 55.5517 15.2777 54.8636 15.2777 54.8636C15.5667 53.6775 16.4281 53.3334 16.4825 53.313C15.5589 53.9487 15.43 54.9001 15.43 54.9001C15.43 54.9001 15.3777 55.111 15.3777 55.644C15.3777 55.644 15.3499 56.9303 16.5003 57.566C15.6512 57.2424 15.3477 56.3628 15.3477 56.3628Z" fill="#0099B8"/>
<path id="Vector_12" d="M29.3016 52.9272L29.3027 53.1403C29.8307 53.1437 29.9985 53.4354 29.9985 53.4354L29.9963 56.3328L27.4221 52.9272H25.5504V53.1324C25.5504 53.1324 26.0172 53.1221 26.2373 53.4242L26.2439 57.3924C26.0928 57.6806 25.5437 57.7057 25.5437 57.7057V57.912H27.3576V57.7002C26.8308 57.6969 26.6619 57.4038 26.6619 57.4038L26.6641 53.9153L29.6762 57.912H30.4231L30.4163 53.4472C30.5665 53.1578 31.1155 53.1327 31.1155 53.1327V52.9275L29.3016 52.9272ZM29.5651 57.4046L26.584 53.4261L26.7863 53.4295L29.7685 57.4092L29.5651 57.4046Z" fill="#0099B8"/>
<path id="Vector_13" d="M29.9265 10.5473C26.3475 -0.300029 16.9321 0.0451814 16.9321 0.0451814H-0.000244141V1.43172C-0.000244141 1.43172 3.37756 1.63908 3.89996 3.85276V33.3995C3.37756 35.6122 -0.000244141 35.8181 -0.000244141 35.8181V37.207H15.1882C22.0349 37.027 27.7235 32.7842 30.0732 26.0531C32.5263 18.2069 29.9265 10.5473 29.9265 10.5473ZM6.02845 33.5306H4.97921V3.7092H6.02845V33.5306ZM13.4198 34.7827C10.5855 34.491 10.5478 32.0814 10.5478 32.0814L10.5344 2.87523C10.5344 2.87523 12.2505 2.23835 15.8462 2.37165C15.8462 2.37165 19.0773 2.20987 21.1835 5.75085C21.1835 5.75085 23.2187 9.17675 23.3632 14.7503L23.4443 18.216C23.4443 18.216 23.5755 24.938 21.9749 28.6179C19.5741 35.4652 13.4198 34.7827 13.4198 34.7827ZM20.4578 33.0875C20.4578 33.0875 24.6758 30.0341 24.8148 18.4576C24.8403 18.3459 24.8892 16.6233 24.7803 15.1969C24.6347 13.3022 24.3179 11.5966 24.3179 11.5966C23.2098 4.88497 20.3977 3.22044 20.3099 3.17031C23.8556 4.31987 25.7084 10.414 25.9074 16.8318C26.1285 23.9706 24.2979 31.5094 20.4578 33.0875Z" fill="#0099B8"/>
<path id="Vector_14" d="M65.4682 1.3273V0H49.2794V1.3273C49.2794 1.3273 52.5383 1.36148 53.6587 3.52275V16.5006H41.0267V3.52389C41.0267 3.52389 41.6312 1.58364 45.4416 1.34552V0.0170894H29.2528V1.34552C29.2528 1.34552 32.5117 1.37857 33.6321 3.54098V33.7179C32.5117 35.8802 29.2517 35.9134 29.2517 35.9134V37.2407H45.4416V35.9134C41.6315 35.6742 41.0267 33.7351 41.0267 33.7351V18.9058H53.6587V33.6999C52.5383 35.8612 49.2794 35.8942 49.2794 35.8942V37.2226H65.4682V35.8942C61.6591 35.6572 61.0544 33.718 61.0544 33.718V3.50463C61.0546 3.50463 61.6592 1.56439 65.4682 1.3273ZM35.9617 33.7043H34.799V3.70971H35.9617V33.7043ZM56.0305 33.6884H54.8678V3.69364H56.0305V33.6884Z" fill="#0099B8"/>
</g>
<g id="Group_3">
<path id="Vector_15" d="M39.8338 49.0457C39.8192 48.9106 39.8167 48.8863 39.7804 48.8863C39.7713 48.8863 39.7624 48.8901 39.7561 48.8971C39.7444 48.9087 39.7435 48.9236 39.7404 48.9422C39.6698 49.2383 39.54 49.3767 39.5383 49.3794C39.5374 49.3804 39.5368 49.3811 39.5361 49.3818C39.307 49.6988 38.9407 49.8878 38.5562 49.8878H26.5812C26.1107 49.8878 25.6771 49.6052 25.4772 49.169C25.4582 49.1248 25.4069 48.9973 25.4014 48.9383C25.4 48.9243 25.3966 48.8862 25.3627 48.8862C25.3264 48.8862 25.321 48.9124 25.3088 49.0466C25.3023 49.1213 25.2981 49.2011 25.2981 49.2453C25.2981 49.973 25.8756 50.5651 26.5855 50.5651H38.5608C39.2709 50.5651 39.8483 49.973 39.8483 49.2453C39.8481 49.1965 39.8407 49.1103 39.8338 49.0457Z" fill="#0099B8"/>
<path id="Vector_16" d="M26.4595 49.5314C26.5885 49.5698 26.7113 49.5896 26.8223 49.5896H26.8225C27.0978 49.5999 27.2881 49.5471 27.4237 49.5101C27.4743 49.4967 27.5168 49.4846 27.5541 49.4792C27.6569 49.465 27.8102 49.4674 27.9858 49.4855C28.0528 49.4955 28.1272 49.505 28.2068 49.5143C28.7057 49.5725 29.3801 49.6116 29.7168 49.5996C29.7182 49.5996 29.7197 49.5996 29.7213 49.5993H29.731C30.1123 49.5993 30.3829 49.4523 30.4816 49.3888C30.6784 49.4996 31.1874 49.5779 31.3853 49.5877C31.53 49.595 31.6868 49.5993 31.8517 49.5993C32.5751 49.5993 33.3562 49.5272 33.7825 49.4601C34.4842 49.6019 35.6488 49.6322 36.505 49.6322C37.2427 49.6322 37.8959 49.6082 38.0217 49.5919L38.0755 49.5856C38.3133 49.5608 38.8692 49.5026 39.0961 48.9759C39.1866 48.7664 39.1784 48.5465 39.0709 48.3202C39.4334 47.8641 39.4845 47.0846 39.3437 46.5349C39.2508 46.1719 39.078 45.9014 39.0322 45.8343C38.9951 45.7317 38.837 45.3054 38.6299 44.9491C38.3484 44.4128 37.8032 44.0406 37.0534 43.8728C36.5496 43.76 35.9611 43.7365 35.5028 43.8073C35.4696 43.8126 35.4105 43.8233 35.335 43.8367C35.0128 43.8939 34.3426 44.0125 34.1239 44.0192C34.0856 44.0166 34.0583 44.003 34.0383 43.9768C34.0039 43.932 33.9716 43.8289 34.0127 43.5876C34.015 43.5758 34.016 43.567 34.016 43.567V43.5675C34.0754 43.2062 33.9804 42.9086 33.7403 42.7058C33.6244 42.6083 33.4754 42.5609 33.2853 42.5609C33.1307 42.5609 32.972 42.5915 32.8231 42.6225C32.7816 42.6313 32.7397 42.6411 32.698 42.6513C32.4953 42.6984 32.2775 42.738 32.1099 42.6828C32.0902 42.6764 32.068 42.666 32.0436 42.6519C32.0428 42.6517 32.042 42.6513 32.0413 42.6503C31.8015 42.513 31.3593 42.0676 31.1121 41.8003C31.1405 41.7427 31.16 41.6929 31.1862 41.6254C31.2024 41.5833 31.2212 41.5352 31.2489 41.4706C31.2718 41.4161 31.3519 41.28 31.3971 41.2068C31.42 41.1692 31.4272 41.1233 31.4166 41.0809C31.4061 41.0375 31.3784 41.0001 31.3405 40.9789C31.2111 40.905 31.0754 40.8717 30.9617 40.8579C31.1315 40.5656 31.2694 40.1986 31.2859 40.1533C31.3048 40.1017 31.2975 40.0455 31.2666 40.0019C31.2372 39.9597 31.1896 39.9341 31.1329 39.9341H31.1325C30.3848 39.9623 30.015 40.114 29.833 40.2486C29.7528 40.1915 29.636 40.1361 29.4839 40.1361C29.424 40.1361 29.3626 40.1445 29.3005 40.1621C29.075 40.2245 28.9539 40.3953 28.8961 40.5107C28.7407 40.5493 28.4683 40.6733 28.1899 41.0627C27.8063 41.5961 27.3844 41.8654 27.1819 41.9952C27.1345 42.0254 27.0991 42.0478 27.0792 42.064C26.8184 42.2746 26.561 42.5965 26.8863 43.2301C27.1202 43.6858 27.668 43.8483 28.1032 43.8483C28.2068 43.8483 28.3088 43.8399 28.4076 43.8227C28.4563 43.9012 28.5075 44.0301 28.4539 44.182C28.4265 44.2599 28.3876 44.3358 28.3489 44.4111L28.3137 44.479C28.2197 44.6554 28.1227 44.8374 28.1968 45.1328C28.0766 45.2157 27.9248 45.3867 27.8913 45.5802C27.8726 45.6892 27.8761 45.7964 27.904 45.9058C27.8974 45.9046 27.8899 45.9029 27.8807 45.9003L27.7929 45.8762C27.5946 45.8207 27.3674 45.7787 27.1574 45.8641C26.9108 45.965 26.5606 46.2468 26.2909 47.0173C26.2176 47.2283 26.1483 47.427 26.2321 47.6161C26.2389 47.6315 26.2567 47.6716 26.1271 47.7478C26.0247 47.8081 25.9564 47.924 25.9487 48.0496C25.9441 48.1265 25.9625 48.2015 26.0014 48.2669L26.0029 48.2656C26.0051 48.2719 26.0077 48.2774 26.0109 48.2823C26.0195 48.2953 26.0218 48.2994 26.0114 48.3177C25.9724 48.381 25.9323 48.4499 25.9047 48.5298C25.8458 48.6985 25.8384 48.7362 25.8207 48.825C25.773 49.0641 25.9984 49.3939 26.4595 49.5314ZM25.9543 48.8385C25.969 48.7651 25.9751 48.7347 26.0306 48.5752C26.0556 48.502 26.0973 48.4345 26.1255 48.3882C26.1614 48.3276 26.1606 48.2669 26.1222 48.2055C26.122 48.2055 26.1197 48.2022 26.1175 48.1983C26.1167 48.1972 26.1162 48.1959 26.1154 48.1948C26.0906 48.1538 26.0793 48.1064 26.0823 48.0576C26.0871 47.9767 26.1297 47.9036 26.1937 47.8662C26.35 47.7742 26.4039 47.6709 26.3539 47.5585C26.2955 47.4268 26.3399 47.2845 26.4167 47.0626C26.6697 46.3404 26.986 46.0815 27.207 45.9908C27.3845 45.9188 27.5698 45.9551 27.7577 46.0076L27.858 46.0351C27.9538 46.0596 28.0077 46.0286 28.0276 46.0005C28.0422 45.9799 28.0561 45.9437 28.0388 45.8889C28.0112 45.7974 28.0059 45.7014 28.0227 45.6029C28.0528 45.4303 28.2092 45.2753 28.3055 45.2242C28.3344 45.2087 28.3484 45.1748 28.3386 45.1434C28.256 44.8717 28.3331 44.7268 28.4307 44.5435L28.4684 44.4713C28.5079 44.3945 28.5489 44.3145 28.5793 44.2276C28.6662 43.9814 28.5464 43.7801 28.4908 43.7051C28.4752 43.6843 28.45 43.6741 28.4248 43.679C28.3215 43.6994 28.2132 43.7099 28.103 43.7099C27.707 43.7099 27.2108 43.567 27.0044 43.1653C26.7275 42.6256 26.9162 42.3682 27.1618 42.1707C27.1794 42.1563 27.2108 42.1369 27.2525 42.1104C27.4623 41.9763 27.8987 41.6977 28.2975 41.143C28.5803 40.7472 28.851 40.657 28.9546 40.6369C28.9757 40.6329 28.9937 40.6185 29.0025 40.5981C29.0436 40.5076 29.1412 40.3475 29.3354 40.2936C29.3861 40.2795 29.436 40.2723 29.484 40.2723C29.6266 40.2723 29.7294 40.3351 29.7909 40.3872C29.8158 40.4087 29.8518 40.4089 29.8768 40.3868C29.9979 40.2824 30.323 40.1014 31.1386 40.0708C31.1461 40.0708 31.1533 40.0744 31.1582 40.0815C31.1629 40.0882 31.1639 40.0967 31.1611 40.1045C31.1538 40.124 30.9818 40.5862 30.7901 40.8798C30.7765 40.9007 30.775 40.9272 30.7862 40.9494C30.7975 40.9719 30.8199 40.9856 30.8441 40.9866C30.9566 40.989 31.1226 41.01 31.276 41.0981C31.2814 41.1012 31.2857 41.1068 31.2873 41.1137C31.2889 41.1203 31.2877 41.1274 31.2844 41.1329C31.2793 41.1408 31.1617 41.3321 31.1268 41.4153C31.0981 41.4816 31.0787 41.5312 31.057 41.5872C31.0303 41.6568 31.0104 41.707 30.9721 41.7783C30.9583 41.8044 30.9621 41.8367 30.9819 41.8586C31.0492 41.9321 31.6476 42.5809 31.9744 42.7686C31.9752 42.7694 31.9758 42.7698 31.9767 42.7704C32.0103 42.7897 32.0415 42.8041 32.0689 42.8131C32.2657 42.8779 32.5084 42.8357 32.7274 42.7843C32.7686 42.7747 32.8094 42.7653 32.8502 42.7566C32.9926 42.7265 33.1433 42.6973 33.2855 42.6973C33.4435 42.6973 33.5645 42.7345 33.6554 42.8113C33.8567 42.9808 33.9356 43.2342 33.8845 43.544C33.8842 43.5463 33.8815 43.5621 33.8815 43.564C33.8667 43.6511 33.8218 43.9159 33.9336 44.0612C33.9773 44.1181 34.04 44.1504 34.1215 44.1553C34.3562 44.1487 35.0082 44.0335 35.3578 43.9716C35.4328 43.9584 35.4913 43.9481 35.5241 43.9426C35.69 43.9165 35.8808 43.9031 36.0758 43.9031C36.3951 43.9031 36.7238 43.9388 37.0253 44.0063C37.7362 44.1654 38.2503 44.514 38.5141 45.0164C38.723 45.3752 38.8806 45.8065 38.9102 45.8893C38.9124 45.8951 38.9149 45.9004 38.9184 45.9058C38.9521 45.9541 39.1238 46.2141 39.2151 46.5693C39.3472 47.0863 39.296 47.8565 38.9403 48.266C38.9209 48.2877 38.9179 48.3201 38.9321 48.3452L38.9482 48.374C39.0402 48.5631 39.0493 48.7469 38.9744 48.9203C38.7788 49.3736 38.2952 49.4245 38.0624 49.4491L38.0055 49.4556C37.9033 49.4689 37.2813 49.4948 36.5055 49.4948H36.5052C35.8053 49.4948 34.523 49.4728 33.7973 49.3231C33.793 49.3219 33.7884 49.3213 33.7841 49.3213C33.7811 49.3213 33.7771 49.3219 33.7736 49.3223C33.3553 49.3893 32.5751 49.4618 31.852 49.4618C31.6893 49.4618 31.5347 49.4584 31.3923 49.4509C31.1384 49.4381 30.6274 49.34 30.5238 49.2535C30.501 49.2346 30.4658 49.2336 30.4416 49.2518C30.4124 49.2732 30.1475 49.4618 29.7154 49.4618H29.7152C29.7118 49.4613 29.7082 49.4624 29.7047 49.4628C29.3714 49.4741 28.7112 49.4349 28.2223 49.3781C28.1441 49.3691 28.0711 49.3596 28.0022 49.3497C27.8109 49.3297 27.6505 49.3279 27.5368 49.3433C27.4948 49.3491 27.4466 49.3621 27.3897 49.3781C27.2726 49.4094 27.112 49.4538 26.8901 49.4538C26.8699 49.4538 26.849 49.4534 26.8253 49.4524C26.7246 49.4524 26.6141 49.4349 26.4971 49.3997C26.0935 49.2794 25.9212 49.0044 25.9543 48.8385Z" fill="#0099B8"/>
<path id="Vector_17" d="M36.6775 44.6187L36.6846 44.6265C36.8424 44.8064 37.0191 45.0084 37.2119 45.1836L37.2203 45.1914C37.6371 45.5977 37.9949 45.6026 38.0099 45.6026C38.2659 45.6026 38.4729 45.4463 38.5303 45.3985C38.5305 45.3985 38.5305 45.3985 38.5305 45.3981C38.4962 45.3255 38.4667 45.266 38.4376 45.211C38.4187 45.1731 38.313 44.9958 38.2768 44.9428C38.2312 44.8733 38.1806 44.8087 38.1231 44.748C37.6793 44.2859 36.9909 44.1336 36.4921 44.0876L36.4825 44.0881C36.39 44.0797 36.296 44.0739 36.2005 44.0713C36.1662 44.0698 36.1317 44.0693 36.0969 44.0693C36.2196 44.1542 36.3322 44.2476 36.4319 44.349C36.5055 44.4233 36.5852 44.5137 36.6775 44.6187Z" fill="#0099B8"/>
<path id="Vector_18" d="M30.2968 42.3203H30.2948C30.3411 42.4633 30.4208 42.8033 30.2425 43.0686C30.0221 43.3957 29.5927 43.4746 29.2794 43.5317L29.2045 43.5452C29.182 43.5507 29.1511 43.5552 29.1152 43.5609C29.03 43.5737 28.8308 43.6042 28.8328 43.6686C28.8356 43.7522 28.9072 43.8004 29.0296 43.8004C29.0757 43.8004 29.1249 43.7934 29.1748 43.7795C29.2466 43.751 29.3254 43.7158 29.4059 43.6756C29.4242 43.6661 29.4441 43.6617 29.4652 43.6617C29.5176 43.6617 29.5641 43.6916 29.5868 43.739C29.6027 43.7721 29.605 43.8101 29.5934 43.845C29.5815 43.8801 29.5572 43.9081 29.5246 43.9245C29.3438 44.015 29.1743 44.081 29.0205 44.1198C28.9916 44.1315 28.9815 44.151 28.9899 44.1837C29.0033 44.2346 29.027 44.2381 29.064 44.2351C29.756 44.0708 30.7824 43.6891 31.7403 42.8044C31.4481 42.5844 31.0848 42.2058 30.9218 42.0303C30.8069 42.1472 30.587 42.3203 30.2968 42.3203Z" fill="#0099B8"/>
<path id="Vector_19" d="M30.0418 41.0523C30.2688 41.0523 30.5502 40.8728 30.7266 40.616C30.8372 40.4545 30.8962 40.3363 30.935 40.2515C30.4633 40.3096 29.8968 40.4581 29.7898 40.6966C29.7546 40.7745 29.7708 40.8634 29.8381 40.9601C29.88 41.0205 29.9504 41.0523 30.0418 41.0523Z" fill="#0099B8"/>
<path id="Vector_20" d="M28.4827 45.5608H28.5524C28.8905 45.5608 29.257 45.5334 29.6412 45.4793C30.4239 45.3684 31.6754 45.084 33.1929 44.3567C33.2057 44.3495 33.2144 44.3306 33.2116 44.3134C33.2093 44.2994 33.1931 44.2536 33.0759 44.2372C32.7803 44.1768 32.7296 43.9349 32.7288 43.9317C32.7288 43.9317 32.6773 43.8265 32.762 43.7575C32.8234 43.7196 32.9094 43.7402 32.9473 43.8026C32.9505 43.8082 33.0357 43.9407 33.2388 43.9407H33.2545C33.439 43.9345 33.6644 43.7728 33.7087 43.6142C33.7801 43.3099 33.7282 43.0823 33.5549 42.9382C33.4911 42.885 33.4026 42.8599 33.2836 42.8599C33.2431 42.8599 33.1985 42.8626 33.1479 42.8688C32.8575 42.923 32.662 43.1634 32.5885 43.2537L32.4249 43.455C31.7188 44.2687 30.8535 44.6519 30.0206 44.9442C29.3005 45.1973 28.7078 45.2663 28.4866 45.2844C28.4348 45.2915 28.3579 45.3365 28.3639 45.4309C28.3685 45.5018 28.4289 45.555 28.4827 45.5608Z" fill="#0099B8"/>
<path id="Vector_21" d="M28.4593 48.5293C28.3806 48.4152 28.2604 48.2603 28.1119 48.1446C27.9369 48.0087 27.7609 48.0102 27.665 48.0698C27.561 48.1339 27.5426 48.2305 27.5261 48.3048C27.5069 48.3914 27.4748 48.598 27.4451 48.7968C27.4176 48.9821 27.6019 49.107 27.8939 49.0592C28.232 49.0081 28.7015 48.9166 28.4599 48.5298C28.4593 48.5296 28.4593 48.5293 28.4593 48.5293Z" fill="#0099B8"/>
<path id="Vector_22" d="M26.1252 48.9233C26.1262 48.9203 26.1275 48.9166 26.1299 48.9066C26.1704 48.7346 26.2245 48.6156 26.2253 48.6144C26.2485 48.5636 26.2762 48.5375 26.307 48.5375C26.3154 48.5375 26.3236 48.5394 26.3309 48.5424C26.3418 48.5476 26.349 48.5555 26.353 48.5675C26.3646 48.5996 26.3492 48.6472 26.3381 48.6723C26.326 48.7002 26.2641 48.8508 26.2312 49.0434C26.2265 49.079 26.3229 49.1146 26.3108 49.1088C26.3229 49.1146 26.3332 49.1195 26.345 49.1236C26.4721 49.1721 26.5485 49.0691 26.5761 48.8107C26.6202 48.3915 26.5416 48.3367 26.4844 48.2963L26.4697 48.2855C26.4162 48.2485 26.3583 48.2015 26.3548 48.1203C26.3689 47.9561 26.5257 47.9561 26.6294 47.9561C26.685 47.9561 26.7476 47.9586 26.8442 47.9639C26.9534 47.972 27.0323 47.9163 27.0675 47.8143C27.1074 47.699 27.0812 47.5271 26.954 47.4211C26.7556 47.2494 26.6864 47.1312 26.7295 47.0373C26.7511 46.9891 26.7933 46.9625 26.8478 46.9625C26.9013 46.9625 26.9714 46.988 27.0627 47.04C27.0857 47.0535 27.1099 47.0605 27.1344 47.0605C27.2508 47.0605 27.3598 46.9059 27.4011 46.8393C27.4569 46.749 27.5262 46.6375 27.651 46.5374C27.7223 46.4823 27.8186 46.4781 27.8668 46.5313C27.8941 46.5621 27.9053 46.6056 27.9 46.6617C27.8935 46.7285 27.8704 46.8142 27.8333 46.9103C27.767 47.0711 27.7609 47.217 27.8152 47.3441C27.8669 47.4645 27.9762 47.5658 28.1076 47.6148C28.3396 47.7 28.4322 47.6758 28.6649 47.5955C28.8319 47.5374 28.9333 47.5448 28.9728 47.6148C29.0012 47.6661 28.9884 47.7393 28.9349 47.8326C28.8087 48.0528 28.7127 48.3217 28.822 48.4189C28.8217 48.4177 28.8413 48.4043 28.8626 48.3599C28.9321 48.2103 29.0487 47.9604 29.3322 47.9604C29.385 47.9604 29.4419 47.9699 29.5007 47.9883C29.5342 47.9983 29.5444 48.0239 29.547 48.0345C29.5536 48.0607 29.5441 48.0896 29.5195 48.1167C29.4189 48.2301 29.2085 48.5245 29.4403 48.7965C29.5074 48.8739 29.6071 48.9249 29.7275 48.9444C29.765 48.9501 29.8023 48.9531 29.8379 48.9531C30.1348 48.9531 30.2679 48.745 30.2969 48.6349C30.3062 48.5988 30.3118 48.5646 30.3168 48.5319C30.33 48.446 30.3437 48.3595 30.4158 48.2289C30.4804 48.0735 30.5998 47.9319 30.7689 47.8111C31.1467 47.5415 31.3765 47.1272 31.4171 47.0069L31.4308 46.9665C31.467 46.8574 31.4871 46.7973 31.5744 46.7944C31.6205 46.7944 31.6557 46.8122 31.6789 46.8446C31.7185 46.9003 31.7178 46.9943 31.6764 47.1233C31.6294 47.2707 31.3929 47.6338 31.2076 47.8428C31.1075 47.9557 31.0138 48.2836 31.1008 48.5207C31.1523 48.661 31.2594 48.7415 31.4197 48.7601C31.447 48.7614 31.4728 48.7628 31.4961 48.7641C31.6697 48.7774 31.8207 48.7837 31.9584 48.7837C32.3622 48.7837 32.6476 48.73 32.8057 48.6239C32.9677 48.5151 33.0465 48.4336 33.0966 48.3227C33.183 48.0972 33.257 47.7915 33.3226 47.3898C33.5064 46.2588 33.2144 45.6145 33.0933 45.4062C33.0498 45.4506 32.9867 45.499 32.9055 45.519C32.8803 45.5256 32.8547 45.529 32.8297 45.529C32.7466 45.529 32.6808 45.4945 32.6386 45.4642C32.6168 45.5194 32.574 45.5901 32.4898 45.6241C32.4425 45.6433 32.3948 45.6535 32.3481 45.6535C32.2699 45.6535 32.2092 45.6252 32.1695 45.5992C32.1481 45.6613 32.0955 45.7533 31.969 45.7863C31.9381 45.7944 31.9072 45.7986 31.8765 45.7986C31.8032 45.7986 31.7479 45.7738 31.712 45.7502C31.6883 45.8093 31.6352 45.885 31.5153 45.9187C31.4845 45.9273 31.4533 45.9318 31.4229 45.9318C31.3505 45.9318 31.2918 45.907 31.2494 45.8794C31.2326 45.9478 31.1851 46.047 31.0526 46.0797C31.0216 46.0872 30.9903 46.0912 30.9608 46.0912C30.8673 46.0912 30.8004 46.0526 30.7589 46.0176C30.733 46.0747 30.6776 46.145 30.559 46.1724C30.5265 46.1797 30.4944 46.1837 30.4639 46.1837C30.3739 46.1837 30.3109 46.1507 30.2722 46.12C30.2459 46.1745 30.1914 46.244 30.0822 46.2744C30.0476 46.2834 30.0139 46.2883 29.9821 46.2883C29.9124 46.2883 29.8592 46.2677 29.8219 46.2458C29.7939 46.2897 29.7388 46.347 29.6363 46.3708C29.6086 46.3774 29.5813 46.3806 29.5556 46.3806C29.4556 46.3806 29.3901 46.3334 29.3514 46.2917C29.3374 46.3178 29.323 46.3523 29.321 46.3887C29.3165 46.46 29.3228 46.5143 29.4997 46.7283C29.5633 46.8058 29.6589 46.9016 29.7434 46.9862L29.7479 46.9911C29.9832 47.2266 30.1676 47.4119 30.1098 47.5258C30.0875 47.5697 30.0452 47.5935 29.99 47.5935C29.8907 47.5935 29.7365 47.52 29.4893 47.355C29.4656 47.3387 29.4418 47.3223 29.4178 47.3059L29.3992 47.2894C29.3348 47.2429 29.1604 47.1161 29.0719 47.0508C28.9498 46.9607 28.404 46.589 28.2075 46.4692C28.2041 46.4673 28.1979 46.4634 28.1898 46.4579L28.1744 46.4477C28.0562 46.3666 27.6968 46.1203 27.4073 46.1203C27.3552 46.1203 27.3082 46.1288 27.2681 46.1454C27.0773 46.2234 26.8013 46.4559 26.5688 47.1222C26.5312 47.2214 26.4729 47.4297 26.5015 47.4897C26.5527 47.6049 26.5907 47.825 26.2747 48.0104C26.2582 48.0204 26.2458 48.0439 26.2444 48.0686C26.2442 48.0717 26.2444 48.0758 26.245 48.0804C26.2453 48.0845 26.2462 48.0886 26.2473 48.093C26.2542 48.1232 26.265 48.1488 26.2809 48.1723L26.2849 48.1776C26.2877 48.1815 26.2904 48.1853 26.2933 48.1891C26.348 48.2746 26.3163 48.3591 26.253 48.4615C26.2366 48.4875 26.2221 48.5142 26.2086 48.5408C26.2102 48.5387 26.2122 48.538 26.2138 48.5364C26.2014 48.5518 26.1897 48.5692 26.1794 48.5913C26.1788 48.5921 26.122 48.7447 26.0985 48.8233C26.067 48.9234 26.1059 48.9739 26.1059 48.9739L26.1252 48.9233ZM26.3853 48.6927C26.39 48.6823 26.4086 48.6398 26.4086 48.5947C26.4086 48.6398 26.39 48.6826 26.3856 48.6927C26.3767 48.7133 26.3408 48.8007 26.31 48.9209C26.3408 48.8007 26.3767 48.7133 26.3853 48.6927Z" fill="#0099B8"/>
<path id="Vector_23" d="M33.546 45.0297C33.4711 45.0602 33.4116 45.1197 33.3823 45.1924C33.3493 45.2744 33.3549 45.3713 33.3985 45.4732C33.4254 45.54 33.466 45.6583 33.4934 45.7474C33.5119 45.8084 33.5733 45.9499 33.742 45.9499C33.7672 45.9499 33.7945 45.9468 33.8228 45.94C34.0489 45.8871 34.0446 45.7768 34.0389 45.6489C34.0339 45.5331 33.9881 45.3071 33.9296 45.1677C33.8724 45.0324 33.7622 45.0039 33.6799 45.0039C33.6346 45.0042 33.5855 45.0137 33.546 45.0297Z" fill="#0099B8"/>
<path id="Vector_24" d="M33.849 47.2612C33.844 47.2612 33.8388 47.2607 33.8333 47.2607C33.6792 47.2607 33.5885 47.3312 33.5633 47.4704C33.5459 47.5684 33.535 47.6306 33.5277 47.6759C33.5216 47.7117 33.517 47.738 33.512 47.7653C33.5052 47.8003 33.5109 47.8983 33.5699 47.9761C33.6155 48.037 33.6828 48.0712 33.7694 48.0772C33.7794 48.078 33.7894 48.0783 33.7994 48.0783C33.95 48.0783 34.043 47.9931 34.075 47.8246C34.0887 47.7503 34.1089 47.5747 34.1119 47.5014C34.1132 47.4641 34.093 47.4009 34.0454 47.3486C34.0105 47.3102 33.9487 47.2642 33.849 47.2612Z" fill="#0099B8"/>
<path id="Vector_25" d="M33.8555 46.1426C33.7782 46.1426 33.7044 46.1732 33.6538 46.2268C33.6037 46.2796 33.5785 46.3519 33.5807 46.4349C33.5837 46.5354 33.5878 46.6 33.5905 46.6517C33.5937 46.7012 33.5959 46.7396 33.5959 46.7853C33.5959 46.9101 33.6419 47.0582 33.8601 47.0582V47.0637L33.8606 47.0582C34.1004 47.0582 34.1373 46.9002 34.1441 46.7813C34.1498 46.681 34.1382 46.4756 34.1198 46.3502C34.0948 46.1817 33.9649 46.1441 33.8606 46.1426H33.8555Z" fill="#0099B8"/>
<path id="Vector_26" d="M35.3024 48.3536C35.3024 48.3536 35.4242 48.3227 35.3024 48.2408C35.181 48.1588 34.9644 48.0422 34.695 48.1553C34.4251 48.2681 34.4137 48.4785 34.5504 48.5366C34.6873 48.5952 34.8482 48.6173 34.8276 48.6727C34.793 48.7662 34.4288 48.5677 34.3951 48.8318C34.3701 49.026 34.4785 49.095 34.752 49.1175C34.7774 49.1175 34.7928 49.1102 34.7928 49.0916C34.7951 48.9739 34.8329 48.5254 35.3024 48.3536Z" fill="#0099B8"/>
<path id="Vector_27" d="M36.081 48.7135C35.9083 48.7053 35.5886 48.6679 35.4629 48.5086C35.449 48.4887 35.4264 48.4836 35.3988 48.4926C35.284 48.5314 34.9831 48.6706 34.9481 49.0749C34.9442 49.1119 34.9538 49.1294 34.9691 49.1428C35.0078 49.1771 35.0926 49.2373 35.2079 49.2448C35.2288 49.2461 35.2452 49.2345 35.2466 49.2165C35.2513 49.143 35.2794 48.9445 35.3935 48.7816C35.4721 48.6541 35.5819 48.7522 35.5259 48.8408C35.4961 48.8934 35.412 49.0886 35.4261 49.241C35.4284 49.264 35.4473 49.281 35.4734 49.2861C35.542 49.3001 35.7094 49.329 35.9126 49.2966C35.9219 49.2951 35.9481 49.2875 35.961 49.2757C36.0095 49.233 36.126 49.1215 36.1838 48.7834C36.1969 48.7369 36.1251 48.7147 36.081 48.7135Z" fill="#0099B8"/>
<path id="Vector_28" d="M35.9926 48.2783C35.7737 48.2618 35.7721 48.1643 35.7712 48.1226C35.7694 48.0506 35.8424 47.9919 35.8719 47.9707C35.7887 47.8959 35.7544 47.7834 35.7544 47.7832C35.6687 47.8374 35.5506 47.9572 35.5538 48.1274C35.5558 48.2297 35.6013 48.4719 35.9779 48.5004C36.1438 48.5105 36.2471 48.5544 36.2651 48.574C36.2651 48.574 36.3057 48.4729 36.4312 48.4319C36.3296 48.3089 36.0704 48.2834 35.9926 48.2783Z" fill="#0099B8"/>
<path id="Vector_29" d="M37.0842 48.5702C37.0842 48.5702 36.8754 48.4927 36.6533 48.5091C36.4966 48.5322 36.3875 48.6152 36.3774 48.7505C36.346 49.1513 36.7644 49.136 36.9355 49.1238C37.1065 49.1123 37.735 49.1238 37.735 49.1238C37.5624 48.8399 37.3182 48.6595 37.0842 48.5702Z" fill="#0099B8"/>
<path id="Vector_30" d="M34.35 47.2631C34.3515 47.5385 34.5247 47.7213 34.8654 47.8034C34.9107 47.8124 34.9557 47.817 34.9977 47.817C35.3221 47.817 35.4098 47.525 35.5031 47.2163L35.5209 47.1569C35.6171 46.8419 35.8116 46.5902 36.0988 46.4089C36.2223 46.3209 36.3211 46.2794 36.3217 46.2791C36.338 46.2724 36.3552 46.2685 36.373 46.2685C36.4277 46.2685 36.477 46.3024 36.498 46.3545C36.5117 46.389 36.5112 46.4264 36.498 46.4607C36.4837 46.495 36.4579 46.5213 36.4247 46.5352C36.4067 46.5433 35.9673 46.747 35.8664 47.1791C35.8197 47.3807 35.8787 47.623 36.0251 47.8281C36.1465 47.9982 36.4346 48.2902 36.9987 48.3325L37.0958 48.3398C37.1031 48.3379 37.1108 48.3377 37.1188 48.3377C37.798 48.3377 38.2652 48.1808 38.5075 47.8709C38.755 47.5548 38.6933 47.1565 38.6685 47.0423C38.661 47.0062 38.6674 46.9689 38.6865 46.9376C38.7059 46.9067 38.7353 46.8853 38.771 46.8767C38.7815 46.8746 38.7912 46.8736 38.8006 46.8736C38.8641 46.8736 38.9187 46.9185 38.9326 46.9823C38.9641 47.1271 39.0412 47.6329 38.7185 48.0447C38.7079 48.0577 38.6971 48.0712 38.6814 48.0885C38.6017 48.1834 38.5184 48.2575 38.4327 48.3091C38.4443 48.3109 38.4591 48.3115 38.4759 48.3115C38.5679 48.3115 38.7082 48.2782 38.854 48.1184C39.1428 47.7452 39.1768 47.0629 39.0613 46.6112C38.998 46.3642 38.8812 46.1449 38.8301 46.0562C38.6465 46.1779 38.3616 46.315 38.0113 46.315C37.7 46.315 37.2044 46.1565 36.7459 45.7117C36.527 45.5113 36.3297 45.2865 36.171 45.1062L36.1621 45.0958C36.0815 45.0039 36.0056 44.9172 35.9455 44.8564C35.7084 44.6177 35.4184 44.4839 35.2165 44.4134C35.2035 44.4097 35.188 44.4052 35.1726 44.4006L35.1532 44.3948C35.0992 44.3787 35.0384 44.36 34.9663 44.3443C34.8406 44.3171 34.7314 44.3135 34.6212 44.3335C34.5681 44.3493 34.5157 44.3637 34.4727 44.3742L34.4618 44.3781C34.4572 44.3801 34.4529 44.3811 34.4483 44.383C34.279 44.4652 34.0882 44.629 34.149 44.9407C34.1622 44.9991 34.4498 46.3022 34.35 47.2631ZM38.716 46.2451C38.7329 46.2806 38.7418 46.3195 38.7418 46.3587C38.7418 46.4941 38.643 46.6045 38.5217 46.6045C38.4144 46.6045 38.3249 46.5201 38.3053 46.4007C38.4447 46.3691 38.5812 46.3177 38.716 46.2451ZM38.0094 46.4363C38.0637 46.4354 38.1178 46.4316 38.1764 46.4239C38.1966 46.5501 38.2747 46.6579 38.3828 46.7089C38.3409 46.7421 38.2896 46.7602 38.2356 46.7602C38.1034 46.7602 37.996 46.6499 37.996 46.5145C37.996 46.4889 38.0001 46.4634 38.0094 46.4363ZM37.7174 46.4022C37.7702 46.4142 37.8227 46.423 37.8741 46.4286C37.8674 46.4575 37.8641 46.4859 37.8641 46.5142C37.8641 46.6049 37.8947 46.6904 37.9512 46.7591C37.812 46.7724 37.6898 46.657 37.6898 46.5142C37.6899 46.4771 37.6985 46.44 37.7174 46.4022ZM37.4085 46.3028C37.4667 46.3272 37.526 46.3484 37.5883 46.3676C37.5683 46.415 37.5585 46.4647 37.5585 46.5142C37.5585 46.5869 37.5778 46.6563 37.6161 46.7172C37.4643 46.7411 37.3391 46.6221 37.3391 46.4744C37.3391 46.4115 37.3635 46.3504 37.4085 46.3028ZM37.1326 46.1608C37.1836 46.1917 37.2344 46.2197 37.2834 46.2445C37.2344 46.3105 37.2071 46.3912 37.2071 46.4746C37.2071 46.5173 37.2143 46.5595 37.2284 46.6004C37.1166 46.5786 37.033 46.4785 37.033 46.3591C37.0334 46.2814 37.0697 46.209 37.1326 46.1608ZM36.8706 45.9775C36.9168 46.0145 36.9655 46.0509 37.0161 46.0855C36.9432 46.1574 36.9017 46.2553 36.9017 46.3587C36.9017 46.3856 36.9045 46.4133 36.9104 46.4395C36.8045 46.4133 36.7278 46.3154 36.7278 46.2009C36.7278 46.1042 36.7829 46.0182 36.8706 45.9775ZM36.6027 45.7356C36.6351 45.7666 36.6622 45.7927 36.6872 45.8157C36.7106 45.8383 36.7357 45.8613 36.7623 45.8852C36.6655 45.9512 36.6041 46.0599 36.5969 46.1779C36.5159 46.1368 36.4632 46.0521 36.4632 45.9578C36.4631 45.8626 36.5162 45.7773 36.6027 45.7356ZM36.3532 45.4795C36.4062 45.5368 36.4557 45.5892 36.5037 45.6383C36.4044 45.7025 36.3415 45.8107 36.3329 45.9333C36.2482 45.8931 36.1932 45.807 36.1932 45.7101C36.1932 45.6081 36.2573 45.5164 36.3532 45.4795ZM36.1247 45.2247L36.1383 45.2399C36.1764 45.2833 36.2163 45.3283 36.2579 45.375C36.1531 45.4327 36.0823 45.5368 36.0658 45.657C36.0022 45.6112 35.9635 45.5366 35.9635 45.4557C35.9636 45.3532 36.0279 45.2607 36.1247 45.2247ZM35.8555 44.9303C35.8652 44.939 35.8753 44.9492 35.8848 44.9586C35.9283 45.0028 35.9821 45.0629 36.0317 45.1188C35.9302 45.1732 35.8582 45.273 35.8379 45.3876C35.7509 45.3484 35.6942 45.2608 35.6942 45.162C35.6942 45.0592 35.7582 44.9666 35.8555 44.9303ZM35.5713 44.7137C35.6323 44.7508 35.6906 44.7916 35.7453 44.8342C35.6355 44.9013 35.5647 45.0229 35.5624 45.1541C35.4833 45.1121 35.4323 45.0281 35.4323 44.9363C35.4323 44.8416 35.4851 44.7566 35.5713 44.7137Z" fill="#0099B8"/>
<path id="Vector_31" d="M28.6477 44.676C28.6529 44.676 28.6563 44.6755 28.6568 44.6755L28.6758 44.6732C28.6718 44.7013 28.6693 44.7451 28.6833 44.7812C28.6352 44.8038 28.6004 44.852 28.6004 44.9101C28.6004 44.9896 28.6637 45.0542 28.7411 45.0542C28.8187 45.0542 28.8817 44.9898 28.8817 44.9101C28.8817 44.8316 28.8204 44.7674 28.7446 44.7661C28.7444 44.7661 28.7446 44.7655 28.7444 44.7655C28.7296 44.7431 28.7336 44.6942 28.7397 44.6658L28.7409 44.6655C28.8354 44.6535 28.9347 44.6362 29.0364 44.6144L29.0431 44.6127C29.0395 44.6447 29.0387 44.6901 29.054 44.7251C29.0179 44.7476 28.9924 44.7864 28.9924 44.8328C28.9924 44.9037 29.0488 44.9611 29.1178 44.9611C29.187 44.9611 29.2431 44.9037 29.2431 44.8328C29.2431 44.7621 29.187 44.7043 29.1178 44.7043C29.1159 44.7043 29.1145 44.7056 29.1126 44.7056V44.7051C29.0988 44.6838 29.1014 44.6325 29.1078 44.5983L29.1102 44.5977C29.1888 44.5793 29.2711 44.5574 29.3623 44.5312L29.3715 44.5286C29.3681 44.5571 29.3677 44.5963 29.3806 44.6289C29.3517 44.6474 29.3317 44.6794 29.3317 44.7169C29.3317 44.775 29.3777 44.8222 29.4342 44.8222C29.4907 44.8222 29.537 44.775 29.537 44.7169C29.537 44.6616 29.4943 44.6173 29.4414 44.6132V44.6124C29.4261 44.5891 29.4307 44.5379 29.4374 44.5094C29.4787 44.4971 29.5172 44.4847 29.5533 44.4733L29.5808 44.4645L29.5888 44.468C29.6089 44.4846 29.6763 44.5212 29.7635 44.5212C29.7922 44.5212 29.8199 44.5174 29.8467 44.5094C29.9708 44.4728 30.0103 44.3723 30.0231 44.3155L30.0246 44.3088L30.043 44.2987L30.0528 44.2957L30.0605 44.3083C30.0801 44.344 30.1403 44.3673 30.2102 44.3673C30.2505 44.3673 30.2918 44.3596 30.3298 44.3449C30.447 44.2998 30.4796 44.1973 30.4715 44.1241L30.4702 44.1112L30.5018 44.0949L30.5112 44.1048C30.5472 44.1467 30.6054 44.1707 30.6716 44.1707C30.7121 44.1707 30.754 44.1612 30.7931 44.1439C30.8923 44.0989 30.9382 43.9992 30.9068 43.8955L30.9026 43.8816L30.9146 43.8742C30.9168 43.8725 30.9192 43.8716 30.9213 43.8701L30.936 43.862L30.9454 43.8727C30.9883 43.9205 31.0494 43.9482 31.1126 43.9482C31.1528 43.9482 31.1927 43.9368 31.2276 43.916C31.3236 43.8576 31.3632 43.7376 31.3227 43.6314L31.3171 43.6175L31.3511 43.5941L31.3616 43.6047C31.4041 43.6467 31.4602 43.6697 31.5192 43.6697C31.5686 43.6697 31.6157 43.6537 31.6552 43.6229C31.7442 43.5541 31.7707 43.4306 31.7185 43.3296L31.7117 43.3163L31.7414 43.291L31.7529 43.3023C31.7885 43.3365 31.8394 43.3549 31.8963 43.3549C31.9686 43.3549 32.038 43.3252 32.092 43.2708C32.1611 43.2019 32.1932 43.0717 32.1298 42.9711C32.0952 42.9638 32.0615 42.9543 32.0294 42.9441C32.0178 42.9404 31.9923 42.9288 31.9778 42.9219C31.9065 42.9902 31.8473 43.0446 31.7924 43.0931C31.4441 43.4033 31.0523 43.6758 30.6284 43.9029C30.3139 44.0727 29.9878 44.2157 29.6584 44.3268C29.1904 44.4852 28.8222 44.5473 28.6443 44.5697C28.5969 44.5844 28.592 44.6083 28.5945 44.6312C28.5973 44.6607 28.6152 44.676 28.6477 44.676Z" fill="#0099B8"/>
<path id="Vector_32" d="M28.4751 46.0627C28.4751 46.1684 28.5591 46.255 28.6628 46.255C28.766 46.255 28.8502 46.1684 28.8502 46.0627C28.8502 45.9569 28.766 45.8704 28.6628 45.8704C28.6617 45.8704 28.6609 45.8708 28.66 45.8708C28.6596 45.8686 28.6593 45.8671 28.6587 45.8655C28.6424 45.8277 28.6568 45.7888 28.6585 45.7846C28.6665 45.7659 28.6585 45.7443 28.6406 45.7356C28.636 45.7333 28.6308 45.7324 28.626 45.7324C28.6118 45.7324 28.599 45.741 28.593 45.7541C28.5904 45.7603 28.5661 45.8192 28.589 45.8846L28.5894 45.8855C28.5222 45.9153 28.4751 45.9834 28.4751 46.0627Z" fill="#0099B8"/>
<path id="Vector_33" d="M28.9221 46.0374C28.9221 46.1432 29.0063 46.2296 29.1095 46.2296C29.2132 46.2296 29.2971 46.1432 29.2971 46.0374C29.2971 45.9316 29.2131 45.8453 29.1101 45.8451L29.1094 45.8423C29.1091 45.8407 29.1085 45.8387 29.1077 45.8365C29.0905 45.7961 29.1075 45.7552 29.1077 45.7549C29.1154 45.7363 29.1075 45.7148 29.0895 45.7069C29.0848 45.7046 29.0801 45.7036 29.0748 45.7036C29.0608 45.7036 29.0478 45.7122 29.0423 45.7253C29.0396 45.7313 29.015 45.7902 29.0383 45.8554L29.0396 45.8591C28.9709 45.888 28.9221 45.9567 28.9221 46.0374Z" fill="#0099B8"/>
<path id="Vector_34" d="M29.3613 45.9882C29.3613 46.0946 29.4455 46.1805 29.5489 46.1805C29.6521 46.1805 29.7365 46.0944 29.7365 45.9882C29.7365 45.8969 29.6739 45.8206 29.5904 45.8013H29.5902C29.5798 45.7988 29.5693 45.7976 29.5586 45.7972C29.5571 45.7972 29.5554 45.7963 29.5538 45.7963H29.5526H29.5497L29.5491 45.7921C29.5484 45.7902 29.5478 45.7886 29.5471 45.7863C29.5309 45.748 29.5454 45.7098 29.5471 45.7052C29.5551 45.6868 29.5471 45.6648 29.5289 45.6567C29.5244 45.6545 29.5195 45.6533 29.5144 45.6533C29.5005 45.6533 29.4875 45.6621 29.4815 45.6752C29.4787 45.6812 29.4546 45.7395 29.4776 45.8052L29.479 45.8102C29.4103 45.8387 29.3613 45.9077 29.3613 45.9882Z" fill="#0099B8"/>
<path id="Vector_35" d="M29.791 45.9053C29.791 46.011 29.8754 46.0975 29.9785 46.0975C30.0822 46.0975 30.1663 46.011 30.1663 45.9053C30.1663 45.7993 30.0823 45.7131 29.9793 45.7128L29.9785 45.7104C29.9783 45.7085 29.9776 45.7064 29.9766 45.7044C29.9594 45.6641 29.9765 45.6235 29.9766 45.6225C29.9846 45.6046 29.9765 45.5827 29.9588 45.5745C29.954 45.5723 29.9493 45.5718 29.9441 45.5718C29.9301 45.5718 29.9172 45.58 29.9114 45.5931C29.9083 45.5996 29.884 45.6578 29.9073 45.7238L29.9086 45.7267C29.8397 45.7558 29.791 45.8245 29.791 45.9053Z" fill="#0099B8"/>
<path id="Vector_36" d="M30.383 45.6302H30.3827C30.3825 45.6307 30.3825 45.6307 30.3822 45.6307C30.366 45.638 30.3516 45.648 30.3382 45.6592C30.3382 45.6596 30.3379 45.6596 30.3375 45.6601C30.2962 45.6952 30.2693 45.7478 30.2693 45.8071C30.2693 45.913 30.3535 45.9994 30.4569 45.9994C30.5603 45.9994 30.6443 45.913 30.6443 45.8071C30.6443 45.7357 30.6061 45.6743 30.5497 45.6411C30.5432 45.6368 30.5369 45.6333 30.5302 45.6298C30.5287 45.6292 30.5276 45.629 30.5267 45.6284C30.5164 45.6244 30.5058 45.6212 30.4951 45.6187C30.4935 45.6182 30.4925 45.6182 30.4908 45.6176C30.4815 45.6159 30.4717 45.6146 30.4618 45.6142H30.4578L30.4566 45.6101C30.4562 45.6078 30.4558 45.606 30.4547 45.6043C30.4391 45.5677 30.4521 45.5307 30.4546 45.523C30.4626 45.5043 30.4546 45.4827 30.4369 45.4744C30.4318 45.4723 30.4272 45.4712 30.4219 45.4712C30.4078 45.4712 30.3952 45.4797 30.3893 45.4927C30.3868 45.4991 30.3625 45.558 30.3853 45.6231L30.3872 45.6282L30.3847 45.6292C30.3841 45.6298 30.3834 45.6298 30.383 45.6302Z" fill="#0099B8"/>
<path id="Vector_37" d="M30.7629 45.7127C30.7629 45.8188 30.8469 45.9052 30.9503 45.9052C31.0538 45.9052 31.1378 45.8186 31.1378 45.7127C31.1378 45.6064 31.0538 45.5204 30.9507 45.5204L30.9501 45.5202C30.9498 45.5178 30.9493 45.5161 30.9486 45.5144C30.9313 45.4736 30.9481 45.4333 30.9486 45.4327C30.9561 45.4144 30.9481 45.3927 30.9304 45.3845C30.9256 45.3821 30.9207 45.3809 30.9158 45.3809C30.9017 45.3809 30.8885 45.3895 30.883 45.4026C30.8802 45.4093 30.8561 45.4676 30.8789 45.5332L30.8795 45.5349C30.8112 45.5637 30.7629 45.6324 30.7629 45.7127Z" fill="#0099B8"/>
<path id="Vector_38" d="M31.3324 45.3809C31.3186 45.3875 31.3059 45.3961 31.2942 45.4062C31.293 45.4071 31.2916 45.4076 31.2904 45.4089C31.2498 45.4439 31.2234 45.4963 31.2234 45.555C31.2234 45.6609 31.3073 45.7473 31.411 45.7473C31.5143 45.7473 31.5984 45.6608 31.5984 45.555C31.5984 45.492 31.5683 45.4366 31.5226 45.4014C31.4928 45.3778 31.4565 45.363 31.4159 45.3622L31.4119 45.3615L31.4109 45.3576C31.4102 45.3551 31.4099 45.3536 31.4091 45.3517C31.3929 45.3138 31.4071 45.2753 31.4089 45.2707C31.417 45.252 31.4089 45.2304 31.3911 45.2219C31.3863 45.2199 31.3813 45.2188 31.376 45.2188C31.362 45.2188 31.3493 45.2273 31.3437 45.2405C31.3409 45.2472 31.3168 45.3056 31.3396 45.3711L31.3412 45.3756L31.3368 45.3781C31.3351 45.3787 31.3339 45.3801 31.3324 45.3809Z" fill="#0099B8"/>
<path id="Vector_39" d="M31.6724 45.4042C31.6724 45.5106 31.7569 45.5965 31.8601 45.5965C31.9636 45.5965 32.0476 45.5105 32.0476 45.4042C32.0476 45.2984 31.9636 45.2123 31.8604 45.2119L31.8601 45.2111C31.8596 45.2088 31.8593 45.207 31.8581 45.2047C31.8416 45.1653 31.8574 45.1256 31.8581 45.1237C31.866 45.1049 31.858 45.0834 31.8404 45.0753C31.8356 45.073 31.8305 45.0718 31.8253 45.0718C31.8114 45.0718 31.7985 45.0802 31.793 45.0935C31.7901 45.1001 31.7657 45.1591 31.7886 45.2238L31.7896 45.2262C31.7212 45.2551 31.6724 45.3239 31.6724 45.4042Z" fill="#0099B8"/>
<path id="Vector_40" d="M32.1313 45.2634C32.1313 45.3691 32.2155 45.4557 32.3187 45.4557C32.4226 45.4557 32.5064 45.3691 32.5064 45.2634C32.5064 45.161 32.4272 45.0771 32.3283 45.0722C32.3269 45.0717 32.3257 45.0713 32.3239 45.0713H32.3226C32.3219 45.0713 32.3206 45.0709 32.3197 45.0709L32.3186 45.0673C32.3183 45.0651 32.3179 45.0631 32.3171 45.0615C32.3002 45.0218 32.3163 44.9819 32.317 44.9801C32.3246 44.9617 32.3167 44.9397 32.2992 44.9316C32.2943 44.9295 32.2894 44.9282 32.2842 44.9282C32.2703 44.9282 32.2574 44.937 32.2518 44.9502C32.2503 44.9526 32.224 45.0132 32.2473 45.0802L32.2491 45.0851C32.1801 45.1139 32.1313 45.1826 32.1313 45.2634Z" fill="#0099B8"/>
<path id="Vector_41" d="M32.728 44.9226C32.7129 44.9297 32.6991 44.9391 32.6863 44.9497C32.686 44.95 32.6855 44.9505 32.685 44.9509C32.644 44.9864 32.6169 45.0386 32.6169 45.0975C32.6169 45.2038 32.7013 45.2898 32.8046 45.2898C32.908 45.2898 32.9921 45.2038 32.9921 45.0975C32.9921 45.0268 32.9536 44.965 32.8974 44.9316C32.8908 44.928 32.8846 44.9239 32.8776 44.9202H32.8765C32.8656 44.9153 32.8541 44.9119 32.8419 44.9092C32.8315 44.9068 32.8209 44.9051 32.8095 44.9051L32.8049 44.9047L32.8041 44.901C32.8037 44.8989 32.803 44.8969 32.8019 44.8948C32.7851 44.8548 32.8019 44.814 32.802 44.8138C32.81 44.7951 32.8019 44.7736 32.7842 44.7655C32.7794 44.7631 32.7748 44.7622 32.7695 44.7622C32.7554 44.7622 32.7424 44.7704 32.7366 44.7836C32.7356 44.786 32.7091 44.847 32.7326 44.9142L32.7344 44.9191L32.7299 44.921C32.7294 44.9213 32.729 44.9222 32.728 44.9226Z" fill="#0099B8"/>
<path id="Vector_42" d="M36.3765 44.9121C36.5332 45.0902 36.7268 45.3108 36.9344 45.5003C37.4508 46.0036 37.922 46.0294 38.0114 46.0294C38.3207 46.0294 38.571 45.8915 38.709 45.7943C38.6901 45.7493 38.671 45.7058 38.6521 45.6635C38.5378 45.7473 38.302 45.889 38.0112 45.889C37.9618 45.889 37.5176 45.8755 37.027 45.3976C36.8227 45.211 36.6314 44.9937 36.4784 44.8186C36.3855 44.7126 36.3062 44.6226 36.2372 44.5532C36.0653 44.3793 35.856 44.2351 35.6174 44.1211C35.5359 44.1326 35.4487 44.1466 35.3591 44.1634C35.593 44.2502 35.888 44.3978 36.1413 44.6534C36.2081 44.7203 36.2862 44.8094 36.3765 44.9121Z" fill="#0099B8"/>
<path id="Vector_43" d="M28.9514 43.261C28.982 43.261 29.0147 43.2625 29.0462 43.2636L29.0711 43.2644C29.0936 43.2652 29.1165 43.2657 29.1381 43.2657C29.1773 43.2657 29.2066 43.2636 29.2309 43.2595L29.2576 43.2547C29.5665 43.1987 29.8862 43.1405 30.0149 42.9194C30.1154 42.7444 30.0903 42.4994 29.9436 42.2302L29.9261 42.1988C29.876 42.1104 29.7832 41.9456 29.9187 41.848C30.0048 41.7865 30.1091 41.7069 30.1549 41.6713C30.1425 41.6163 30.1328 41.4955 30.2543 41.4152C30.3461 41.3543 30.4172 41.3605 30.4771 41.3634C30.5129 41.3654 30.5471 41.3693 30.5813 41.3494C30.6152 41.3296 30.6443 41.3192 30.6679 41.3192C30.7121 41.3192 30.7266 41.351 30.73 41.3603C30.7411 41.3908 30.7272 41.4279 30.6939 41.4559C30.6854 41.4632 30.6684 41.4769 30.6452 41.4946C30.5696 41.554 30.3399 41.7339 30.3101 41.7957C30.2871 41.8439 30.2551 41.9617 30.2845 42.0162C30.293 42.0318 30.3063 42.04 30.3278 42.0424C30.5994 42.027 30.786 41.7758 30.8064 41.747C30.8583 41.6575 30.8759 41.6123 30.908 41.5295C30.9232 41.491 30.9467 41.4309 30.9808 41.3502C30.9966 41.3128 31.0258 41.2573 31.067 41.1847C30.9903 41.1611 30.9065 41.1492 30.8173 41.1492C30.7446 41.1492 30.6871 41.1569 30.6561 41.1615L30.6404 41.1635C30.1708 41.2501 29.8685 41.6549 29.8654 41.6591C29.7829 41.7755 29.6951 41.8349 29.6048 41.8349C29.5227 41.8349 29.4706 41.7848 29.4609 41.7749C29.4252 41.7393 29.3585 41.674 29.454 41.4652C29.5342 41.29 29.502 41.0403 29.381 40.8965C29.3059 40.8073 29.1556 40.7939 29.0728 40.7939C29.0251 40.7939 28.9916 40.798 28.9855 40.799L28.9704 40.8007C28.8893 40.8202 28.6681 40.9025 28.4265 41.24C28.3202 41.3884 28.1954 41.5426 28.0544 41.6995C27.973 41.8103 27.8591 41.9025 27.7582 41.9842C27.648 42.0729 27.5533 42.1495 27.5393 42.2175L27.5377 42.2249C27.5315 42.2566 27.522 42.3052 27.4879 42.3353C27.4485 42.369 27.4144 42.3695 27.3815 42.3698C27.3446 42.3703 27.2993 42.3712 27.2094 42.4087C27.0969 42.4556 27.0391 42.5616 27.032 42.7315C27.0326 42.8411 27.0689 42.958 27.1395 43.0784C27.1909 43.1663 27.2553 43.2437 27.3302 43.3081C27.3775 43.3457 27.4383 43.365 27.5103 43.365C27.5888 43.365 27.6781 43.3416 27.7553 43.3001C27.9086 43.2184 27.947 43.1036 27.9699 43.0353C27.9769 43.0155 27.982 42.9998 27.9884 42.9864C28.0024 42.9562 28.0802 42.8037 28.1973 42.8037C28.2474 42.8037 28.2946 42.8311 28.3375 42.8856C28.3643 42.9199 28.3754 42.9576 28.3709 42.9976C28.3619 43.075 28.2949 43.1364 28.2452 43.1758C28.2385 43.1813 28.2046 43.21 28.1999 43.2487C28.1973 43.2701 28.2046 43.2918 28.2217 43.3134C28.2295 43.3273 28.2604 43.3755 28.3513 43.3755C28.3628 43.3755 28.3745 43.3746 28.3868 43.3733C28.4598 43.3648 28.5315 43.3441 28.6007 43.3247C28.6685 43.3053 28.7493 43.282 28.8267 43.2733C28.8538 43.2652 28.8948 43.261 28.9514 43.261ZM28.5669 41.8536C28.4919 41.8364 28.4111 41.7975 28.3451 41.7473L28.3214 41.7292L28.3074 41.7555C28.2979 41.7736 28.2886 41.791 28.2797 41.8082C28.2765 41.8144 28.2697 41.8172 28.2564 41.8181C28.2473 41.8153 28.2417 41.8062 28.2427 41.7963C28.259 41.6719 28.3003 41.5538 28.3663 41.446C28.4027 41.387 28.4455 41.3369 28.494 41.2967C28.5396 41.2568 28.603 41.2246 28.6736 41.2063C28.7283 41.1903 28.786 41.1822 28.8446 41.1822L28.8639 41.1827C28.9268 41.1851 28.9899 41.1961 29.0509 41.2157C29.0794 41.2252 29.1077 41.2357 29.1362 41.2471L29.2279 41.2895C29.2504 41.3008 29.2732 41.3123 29.2953 41.3212C29.3226 41.3333 29.3459 41.3414 29.3709 41.342C29.38 41.3425 29.3881 41.3494 29.3896 41.3588C29.3914 41.3683 29.3869 41.3768 29.3778 41.3806C29.3569 41.39 29.3274 41.3938 29.2909 41.3921L29.2792 41.3913L29.2712 41.4002C29.2515 41.4215 29.2346 41.4476 29.2145 41.4877L29.1966 41.5233C29.1816 41.5535 29.1631 41.591 29.1415 41.626C29.1109 41.6758 29.0747 41.7183 29.0345 41.7527C28.9889 41.7896 28.9397 41.8181 28.8882 41.8361C28.7903 41.8737 28.6751 41.8799 28.5669 41.8536Z" fill="#0099B8"/>
<path id="Vector_44" d="M29.0568 41.565C29.0728 41.5435 29.0877 41.5217 29.1033 41.4983L29.1041 41.4975C29.1165 41.4786 29.1296 41.4592 29.1434 41.4404C29.158 41.4207 29.172 41.4036 29.1865 41.3886L29.1441 41.3794C29.1014 41.3695 29.0607 41.3605 29.0203 41.3533C28.9637 41.3431 28.9058 41.3399 28.8473 41.3428C28.8621 41.3646 28.8732 41.3878 28.8806 41.4122C28.9182 41.5398 28.8478 41.675 28.7234 41.7136C28.7008 41.7207 28.6779 41.724 28.6549 41.724C28.5584 41.724 28.4718 41.6636 28.4361 41.572C28.4124 41.6045 28.3892 41.64 28.3655 41.6793C28.4482 41.7205 28.5175 41.7436 28.5841 41.7525C28.6811 41.7648 28.7716 41.7556 28.8491 41.7248C28.9312 41.6952 29.0009 41.6413 29.0568 41.565Z" fill="#0099B8"/>
</g>
</g>
</svg>
